<?xml version="1.0" encoding="utf-8"?>
<!-- Generator: Adobe Illustrator 25.2.1, SVG Export Plug-In . SVG Version: 6.00 Build 0)  -->
<svg version="1.1" id="Layer_1" xmlns:serif="http://www.serif.com/"
	 xmlns="http://www.w3.org/2000/svg" xmlns:xlink="http://www.w3.org/1999/xlink" x="0px" y="0px" viewBox="0 0 864 864"
	 style="enable-background:new 0 0 864 864;" xml:space="preserve">
<style type="text/css">
	.st0{fill:#FFFFFF;stroke:#000000;stroke-miterlimit:10;}
</style>
<path class="st0" d="M432,0c238.4,0,432,193.6,432,432S670.4,864,432,864S0,670.4,0,432S193.6,0,432,0z M432,162
	c-73.3,0-82.5,0.3-111.3,1.6c-28.7,1.3-48.4,5.9-65.5,12.5c-17.8,6.9-32.8,16.1-47.8,31.1c-15,15-24.2,30.1-31.1,47.8
	c-6.7,17.2-11.2,36.8-12.5,65.5c-1.3,28.8-1.6,38-1.6,111.3s0.3,82.5,1.6,111.3c1.3,28.7,5.9,48.4,12.5,65.5
	c6.9,17.8,16.1,32.8,31.1,47.8c15,15,30.1,24.2,47.8,31.1c17.2,6.7,36.8,11.2,65.5,12.5c28.8,1.3,38,1.6,111.3,1.6
	s82.5-0.3,111.3-1.6c28.7-1.3,48.4-5.9,65.5-12.5c17.8-6.9,32.8-16.1,47.8-31.1c15-15,24.2-30.1,31.1-47.8
	c6.7-17.2,11.2-36.8,12.5-65.5c1.3-28.8,1.6-38,1.6-111.3s-0.3-82.5-1.6-111.3c-1.3-28.7-5.9-48.4-12.5-65.5
	c-6.9-17.8-16.1-32.8-31.1-47.8c-15-15-30.1-24.2-47.8-31.1c-17.2-6.7-36.8-11.2-65.5-12.5C514.5,162.3,505.3,162,432,162z
	 M432,210.6c72.1,0,80.6,0.3,109.1,1.6c26.3,1.2,40.6,5.6,50.1,9.3c12.6,4.9,21.6,10.7,31,20.2c9.5,9.4,15.3,18.4,20.2,31
	c3.7,9.5,8.1,23.8,9.3,50.1c1.3,28.5,1.6,37,1.6,109.1s-0.3,80.6-1.6,109.1c-1.2,26.3-5.6,40.6-9.3,50.1
	c-4.9,12.6-10.7,21.6-20.2,31c-9.4,9.5-18.4,15.3-31,20.2c-9.5,3.7-23.8,8.1-50.1,9.3c-28.5,1.3-37,1.6-109.1,1.6
	s-80.6-0.3-109.1-1.6c-26.3-1.2-40.6-5.6-50.1-9.3c-12.6-4.9-21.6-10.7-31-20.2c-9.4-9.4-15.3-18.4-20.2-31
	c-3.7-9.5-8.1-23.8-9.3-50.1c-1.3-28.5-1.6-37-1.6-109.1s0.3-80.6,1.6-109.1c1.2-26.3,5.6-40.6,9.3-50.1c4.9-12.6,10.7-21.6,20.2-31
	c9.4-9.4,18.4-15.3,31-20.2c9.5-3.7,23.8-8.1,50.1-9.3C351.4,210.9,359.9,210.6,432,210.6L432,210.6z M432,293.4
	c-76.6,0-138.6,62.1-138.6,138.6S355.4,570.6,432,570.6S570.6,508.6,570.6,432S508.6,293.4,432,293.4L432,293.4z M432,522
	c-49.7,0-90-40.3-90-90s40.3-90,90-90s90,40.3,90,90S481.7,522,432,522z M608.5,287.9c0,17.9-14.5,32.4-32.4,32.4
	c-17.9,0-32.4-14.5-32.4-32.4s14.5-32.4,32.4-32.4C594,255.5,608.5,270,608.5,287.9z"/>
</svg>
