<?xml version="1.0" encoding="utf-8"?>
<!-- Generator: Adobe Illustrator 25.2.1, SVG Export Plug-In . SVG Version: 6.00 Build 0)  -->
<svg version="1.1" id="Layer_1" xmlns:serif="http://www.serif.com/"
	 xmlns="http://www.w3.org/2000/svg" xmlns:xlink="http://www.w3.org/1999/xlink" x="0px" y="0px" viewBox="0 0 864 864"
	 style="enable-background:new 0 0 864 864;" xml:space="preserve">
<style type="text/css">
	.st0{fill:#FFFFFF;stroke:#000000;stroke-miterlimit:10;}
</style>
<path class="st0" d="M430.3,864l0.4,0h-0.1L430.3,864L430.3,864z M433.4,864h-0.1l0.4,0L433.4,864z M429,864l0.4,0h-0.2L429,864z
	 M434.8,864h-0.2l0.4,0L434.8,864z M427.8,864l0.3,0L427.8,864L427.8,864L427.8,864z M436.2,864l-0.2,0L436.2,864L436.2,864
	L436.2,864z M437.6,864L437.6,864l0.3,0L437.6,864L437.6,864z M426.1,864l0.4,0l-0.1,0L426.1,864L426.1,864z M439,863.9l-0.2,0
	l0.5,0L439,863.9L439,863.9z M424.8,863.9l0.5,0l-0.2,0L424.8,863.9L424.8,863.9z M440.4,863.9l-0.3,0l0.4,0L440.4,863.9z
	 M423.5,863.9l0.4,0l-0.3,0L423.5,863.9L423.5,863.9z M421.9,863.9l0.4,0l-0.1,0L421.9,863.9L421.9,863.9z M441.8,863.9L441.8,863.9
	l0.3,0L441.8,863.9z M420.5,863.8l0.5,0l-0.2,0L420.5,863.8z M443.1,863.9l-0.2,0l0.5,0L443.1,863.9z M444.5,863.8l-0.3,0l0.5,0
	L444.5,863.8L444.5,863.8z M419.3,863.8l0.5,0l-0.3,0L419.3,863.8L419.3,863.8z M418.1,863.8l0.4,0L418.1,863.8l-0.3,0L418.1,863.8z
	 M445.9,863.8l-0.4,0L445.9,863.8l0.3,0L445.9,863.8z M447.3,863.7l-0.2,0l0.6,0L447.3,863.7z M416.3,863.7l0.6,0l-0.2,0
	L416.3,863.7z M415,863.7l0.6,0l-0.3,0L415,863.7z M448.7,863.7l-0.3,0l0.6,0L448.7,863.7z M413.8,863.6l0.6,0l-0.5,0L413.8,863.6
	L413.8,863.6z M450.1,863.6l-0.5,0l0.6,0L450.1,863.6L450.1,863.6z M412.1,863.5l0.6,0l-0.2,0L412.1,863.5z M451.5,863.6l-0.2,0
	l0.6,0L451.5,863.6L451.5,863.6z M410.8,863.5l0.7,0l-0.3,0L410.8,863.5z M452.8,863.5l-0.3,0l0.7,0L452.8,863.5z M409.6,863.4
	l0.7,0l-0.5,0L409.6,863.4z M454.2,863.4l-0.5,0l0.7,0L454.2,863.4z M455.6,863.4l-0.6,0L455.6,863.4l0.6,0L455.6,863.4L455.6,863.4
	z M408.5,863.4l0.5,0L408.5,863.4l-0.6,0L408.5,863.4L408.5,863.4z M457,863.3l-0.3,0l0.7,0L457,863.3z M406.6,863.3l0.7,0l-0.3,0
	L406.6,863.3z M405.4,863.2l0.7,0l-0.4,0L405.4,863.2L405.4,863.2z M458.4,863.2l-0.4,0l0.7,0L458.4,863.2L458.4,863.2z
	 M404.2,863.1l0.6,0L404.2,863.1l-0.5,0L404.2,863.1L404.2,863.1z M459.7,863.1l-0.6,0L459.7,863.1l0.6,0L459.7,863.1L459.7,863.1z
	 M461.1,863l-0.2,0l0.7,0L461.1,863L461.1,863z M402.5,863l0.7,0l-0.2,0L402.5,863z M401.2,862.9l0.6,0l-0.4,0L401.2,862.9
	L401.2,862.9z M462.5,862.9l-0.4,0l0.6,0L462.5,862.9z M400,862.8l0.6,0l-0.5,0L400,862.8L400,862.8z M463.8,862.8l-0.5,0l0.6,0
	L463.8,862.8L463.8,862.8z M398.4,862.7l0.5,0l-0.1,0L398.4,862.7z M465.2,862.7l-0.1,0l0.5,0L465.2,862.7z M466.6,862.6l-0.2,0
	l0.5,0L466.6,862.6z M397.1,862.6l0.5,0l-0.2,0L397.1,862.6L397.1,862.6z M395.9,862.5l0.4,0l-0.3,0L395.9,862.5z M468,862.5l-0.3,0
	l0.4,0L468,862.5z M394.6,862.4l0.1,0l0,0L394.6,862.4L394.6,862.4z M469.3,862.4L469.3,862.4l0.1,0L469.3,862.4L469.3,862.4z
	 M470.7,862.3l-0.1,0l0.3,0L470.7,862.3L470.7,862.3z M393.1,862.3l0.3,0l-0.1,0L393.1,862.3L393.1,862.3z M391.9,862.2l0.2,0
	L391.9,862.2L391.9,862.2z M472.1,862.2l-0.1,0L472.1,862.2L472.1,862.2z M364.5,858.7C158.1,826.3,0,647.5,0,432
	C0,193.6,193.6,0,432,0s432,193.6,432,432c0,215.5-158.1,394.3-364.5,426.7V556.9h100.7L619.3,432H499.5v-81
	c0-34.2,16.7-67.5,70.4-67.5h54.5V177.2c0,0-49.4-8.4-96.7-8.4c-98.7,0-163.2,59.8-163.2,168.1V432H254.8v124.9h109.7V858.7z"/>
</svg>
