<?xml version="1.0" encoding="utf-8"?>
<!-- Generator: Adobe Illustrator 25.2.1, SVG Export Plug-In . SVG Version: 6.00 Build 0)  -->
<svg version="1.1" id="Layer_1" xmlns:serif="http://www.serif.com/"
	 xmlns="http://www.w3.org/2000/svg" xmlns:xlink="http://www.w3.org/1999/xlink" x="0px" y="0px" viewBox="0 0 864 864"
	 style="enable-background:new 0 0 864 864;" xml:space="preserve">
<style type="text/css">
	.st0{fill:#FFFFFF;stroke:#000000;stroke-miterlimit:10;}
</style>
<path class="st0" d="M432,0c238.4,0,432,193.6,432,432S670.4,864,432,864S0,670.4,0,432S193.6,0,432,0z M690.7,302
	c-6.2-23.2-24.5-41.5-47.7-47.7C600.9,243,432,243,432,243s-168.9,0-211,11.3c-23.2,6.2-41.5,24.5-47.7,47.7
	C162,344.1,162,432,162,432s0,87.9,11.3,130c6.2,23.2,24.5,41.5,47.7,47.7C263.1,621,432,621,432,621s168.9,0,211-11.3
	c23.2-6.2,41.5-24.5,47.7-47.7C702,519.9,702,432,702,432S702,344.1,690.7,302L690.7,302z M378,513V351l140.3,81L378,513L378,513z"
	/>
</svg>
