<svg id="Layer_1" data-name="Layer 1" xmlns="http://www.w3.org/2000/svg" xmlns:xlink="http://www.w3.org/1999/xlink" viewBox="16 16 640 864"><defs><style>.cls-1{fill:#53c3c1;}.cls-2,.cls-3{fill:#ebccb3;}.cls-2{stroke:#c99e83;stroke-width:0.5px;}.cls-11,.cls-14,.cls-15,.cls-16,.cls-17,.cls-18,.cls-19,.cls-2,.cls-20,.cls-21,.cls-22{stroke-miterlimit:10;}.cls-4{fill:#c99e83;}.cls-5,.cls-6,.cls-7{opacity:0.3;}.cls-5{fill:url(#radial-gradient);}.cls-6{fill:url(#radial-gradient-2);}.cls-7{fill:url(#radial-gradient-3);}.cls-8{fill:#441e16;}.cls-9{fill:#d79680;}.cls-10{fill:#e2b4a2;}.cls-11{fill:#3a4156;}.cls-11,.cls-13{stroke:#263145;}.cls-12{fill:#263145;}.cls-13,.cls-14,.cls-15,.cls-16,.cls-17,.cls-18,.cls-19,.cls-20,.cls-21,.cls-22{fill:none;}.cls-13,.cls-14,.cls-19,.cls-21,.cls-22{stroke-linecap:round;}.cls-13{stroke-linejoin:bevel;}.cls-14{stroke:#fff;}.cls-15{stroke:#fcccb8;}.cls-16{stroke:#ffedcb;}.cls-17{stroke:#f9eda1;}.cls-18{stroke:#fbf3d4;stroke-linecap:square;stroke-width:2px;}.cls-19{stroke:#f0dd90;}.cls-19,.cls-21{stroke-width:6px;}.cls-20{stroke:#fdd495;stroke-width:4px;}.cls-21{stroke:#eca178;}.cls-22{stroke:#fef6a6;stroke-width:5px;}.cls-23{fill:#e2989a;}.cls-24{fill:#ebdbd0;}.cls-25{fill:#e3a69c;}.cls-26{fill:#e6e7e8;}.cls-27{fill:url(#radial-gradient-4);}.cls-28{fill:#080505;}.cls-29{fill:#e3b4a1;}.cls-30{fill:#fff;}.cls-31{fill:url(#radial-gradient-5);}</style><radialGradient id="radial-gradient" cx="243.89" cy="374.01" r="23.73" gradientTransform="matrix(0, 1, -0.83, 0, 558.02, 126.72)" gradientUnits="userSpaceOnUse"><stop offset="0.04" stop-color="#fff" stop-opacity="0.6"/><stop offset="0.99" stop-color="#fff" stop-opacity="0"/></radialGradient><radialGradient id="radial-gradient-2" cx="383.5" cy="250.62" r="23.73" gradientTransform="translate(27.05 147.04) scale(1 0.83)" gradientUnits="userSpaceOnUse"><stop offset="0.04" stop-color="#fff" stop-opacity="0.6"/><stop offset="0.99" stop-color="#fff" stop-opacity="0"/></radialGradient><radialGradient id="radial-gradient-3" cx="309.49" cy="197.58" r="16.9" gradientTransform="matrix(0, -1, 0.83, 0, 163.91, 698.11)" gradientUnits="userSpaceOnUse"><stop offset="0.04" stop-color="#fff" stop-opacity="0.6"/><stop offset="0.99" stop-color="#fff" stop-opacity="0"/></radialGradient><radialGradient id="radial-gradient-4" cx="299.51" cy="312.06" r="11.57" gradientTransform="matrix(-0.93, 0.16, 0.14, 0.95, 614.94, -30.58)" gradientUnits="userSpaceOnUse"><stop offset="0" stop-color="#83cec2"/><stop offset="0.73" stop-color="#8dbcda"/><stop offset="0.96" stop-color="#9fb5d3"/><stop offset="0.99" stop-color="#aeaea6"/><stop offset="1" stop-color="#7e7c74"/></radialGradient><radialGradient id="radial-gradient-5" cx="262.35" cy="317.38" r="11.57" gradientTransform="translate(17.68) scale(0.95 1)" xlink:href="#radial-gradient-4"/></defs><rect id="Background" class="cls-1" width="672.16" height="896.21"/><g id="Face_and_Neck" data-name="Face and Neck"><path class="cls-2" d="M344.42,621.8c81.15-4.61,95.94-47.33,103.06-76.32A29.49,29.49,0,0,0,429.54,511s-10-1.15-12.37-2.69-2.2-36.95-2.2-36.95L249.83,481.8l2,27.28L217.32,536S239.57,627.77,344.42,621.8Z" transform="translate(12.08 16.11)"/><path class="cls-3" d="M286.92,121.62c18.72-2.48,72.41,5.25,87.79,12.07s67,89.23,70.44,98.68S459,358.86,459,366.21s1.48,38.84-12.4,70.86-36.62,49.1-44.06,61.18S368.25,539.31,339,543.5s-50.26-13.82-69.6-35.34-43-39.6-50.43-52.72-19.35-44.09-19.35-52-11.4-117-11.4-117-7.94-64.56,0-80.31S271,123.72,286.92,121.62Z" transform="translate(12.08 16.11)"/><path class="cls-4" d="M286.91,121.59a105.18,105.18,0,0,1,17.39-.23c5.79.29,11.58.8,17.34,1.45,11.53,1.29,23,3,34.37,5.45a126.23,126.23,0,0,1,16.79,4.58c2.82.81,5.17,2.73,7.3,4.67s4.11,4.1,6,6.28a339,339,0,0,1,21.15,27.64q10,14.25,19.33,28.95c3.12,4.89,6.2,9.82,9.2,14.78s6,9.94,8.63,15.13c.33.65.63,1.32.91,2s.41,1.42.55,2.14c.31,1.42.55,2.85.78,4.29.46,2.87.85,5.74,1.23,8.62.74,5.75,1.4,11.52,2,17.29,1.28,11.53,2.44,23.08,3.55,34.62s2.18,23.11,3.19,34.67l1.46,17.34.67,8.68c.21,2.88.42,5.8.38,8.7a188.24,188.24,0,0,1-2.56,34.68,161.6,161.6,0,0,1-3.9,17l-1.27,4.16c-.42,1.39-1,2.75-1.42,4.12-.9,2.76-2.08,5.42-3.15,8.11a143.69,143.69,0,0,1-17.7,29.9c-3.52,4.61-7.26,9.05-11.12,13.39s-7.83,8.57-11.52,13c-.48.55-.9,1.14-1.35,1.71s-.91,1.13-1.29,1.74c-.81,1.2-1.62,2.4-2.41,3.62s-1.7,2.35-2.55,3.53-1.8,2.28-2.74,3.39a127.63,127.63,0,0,1-12.09,12.52,129.26,129.26,0,0,1-13.63,10.83,101.35,101.35,0,0,1-15.18,8.52,69,69,0,0,1-16.71,4.84,57.55,57.55,0,0,1-17.38-.25A59.54,59.54,0,0,1,304.72,538a85.57,85.57,0,0,1-14.6-9.49,137.39,137.39,0,0,1-12.9-11.7c-4.08-4.13-7.93-8.48-11.88-12.72-8-8.43-16.43-16.37-24.84-24.37-4.19-4-8.38-8-12.36-12.26-2-2.11-3.9-4.3-5.73-6.57a46.81,46.81,0,0,1-4.74-7.33c-2.72-5.14-5.07-10.45-7.33-15.8S206,427,204.08,421.51c-1-2.74-1.85-5.51-2.69-8.29a55.89,55.89,0,0,1-1.92-8.52c-.29-5.81-.86-11.57-1.37-17.35q-1.6-17.33-3.36-34.64-3.48-34.63-7.11-69.25c-1.26-11.54-2.22-23.11-2.77-34.71-.25-5.8-.41-11.6-.34-17.41A120.08,120.08,0,0,1,185.79,214l.41-2.15.52-2.12c.21-.7.44-1.39.67-2.08a20,20,0,0,1,.93-2,48,48,0,0,1,5.13-7c3.74-4.45,7.78-8.63,11.86-12.75,8.18-8.24,16.71-16.11,25.4-23.81s17.58-15.15,26.75-22.26c4.59-3.54,9.25-7,14.06-10.25,2.4-1.63,4.86-3.18,7.38-4.61l1.92-1c.64-.33,1.31-.62,2-.94A18.66,18.66,0,0,1,286.91,121.59Zm0,0A18.27,18.27,0,0,0,282.8,123c-.65.31-1.31.61-2,.94l-1.9,1c-2.52,1.43-5,3-7.37,4.61-4.81,3.26-9.46,6.73-14,10.28-9.16,7.12-18,14.63-26.71,22.31S213.64,177.77,205.47,186c-4.06,4.13-8.09,8.32-11.81,12.76a48.91,48.91,0,0,0-5.09,7,20.21,20.21,0,0,0-.9,1.95c-.23.69-.45,1.37-.66,2.06l-.51,2.11-.4,2.13a120.82,120.82,0,0,0-1.23,17.32c-.05,5.79.11,11.59.38,17.38.57,11.59,1.56,23.15,2.84,34.68,2.51,23.07,4.8,46.16,7.14,69.25,1.14,11.54,2.28,23.09,3.35,34.65.51,5.77,1.08,11.56,1.37,17.34a55.22,55.22,0,0,0,1.89,8.44c.84,2.77,1.72,5.53,2.69,8.26q2.86,8.2,6.24,16.23c2.25,5.34,4.6,10.65,7.31,15.76a46.21,46.21,0,0,0,4.7,7.26c1.81,2.26,3.7,4.45,5.7,6.55,4,4.21,8.15,8.24,12.34,12.24,8.4,8,16.88,15.94,24.84,24.4,3.95,4.25,7.79,8.6,11.86,12.73a138,138,0,0,0,12.85,11.68,86.12,86.12,0,0,0,14.51,9.47,58.86,58.86,0,0,0,16.41,5.43,57.21,57.21,0,0,0,17.28.28,68.41,68.41,0,0,0,16.63-4.8,100.27,100.27,0,0,0,15.14-8.47,132.44,132.44,0,0,0,25.71-23.27c.93-1.1,1.82-2.25,2.73-3.37s1.75-2.31,2.54-3.52l2.42-3.62c.39-.62.87-1.17,1.31-1.75s.87-1.16,1.35-1.71c3.71-4.47,7.7-8.68,11.55-13s7.6-8.76,11.13-13.37a141.68,141.68,0,0,0,17.64-29.87c1.07-2.7,2.24-5.35,3.14-8.11.47-1.37,1-2.72,1.41-4.11l1.26-4.16a158.64,158.64,0,0,0,3.87-17,186.9,186.9,0,0,0,2.51-34.64c0-2.91-.18-5.78-.39-8.68l-.68-8.67L456.36,334q-1.55-17.34-3.23-34.66c-1.14-11.55-2.31-23.09-3.6-34.62-.64-5.76-1.31-11.52-2.06-17.27-.39-2.88-.77-5.75-1.23-8.61-.22-1.43-.46-2.86-.76-4.27-.14-.72-.33-1.4-.53-2.08s-.56-1.32-.89-2c-2.61-5.16-5.61-10.14-8.58-15.12s-6.06-9.89-9.17-14.78Q417,185.9,407,171.6A339,339,0,0,0,386,143.94c-1.91-2.18-3.9-4.29-6-6.28s-4.41-3.81-7.23-4.63A125.78,125.78,0,0,0,356,128.42c-11.35-2.41-22.82-4.2-34.35-5.5-5.76-.66-11.54-1.18-17.33-1.48A105,105,0,0,0,286.92,121.64Z" transform="translate(12.08 16.11)"/><ellipse class="cls-5" cx="245.85" cy="370.61" rx="19.8" ry="23.73" transform="translate(-185.95 414.33) rotate(-60)"/><ellipse class="cls-6" cx="410.55" cy="356.21" rx="23.73" ry="19.8" transform="translate(-109.77 481.78) rotate(-52.56)"/><path class="cls-7" d="M328.82,373.84c8.65,0,15.67,8.41,15.67,18.78s-7.76,10.78-16.41,10.78-14.94-.41-14.94-10.78S320.16,373.84,328.82,373.84Z" transform="translate(12.08 16.11)"/></g><g id="Eyebrows"><path class="cls-8" d="M216.39,308.34s11.31-16.43,35.85-21.86c21-4.66,41.15,5.66,43.54,6.6,2.07.81,4.31-11.33,4-12.41s-10.52-12.31-10.52-12.31l6.1,10.34-14.09-12,6.73,9.75-14.09-9.26,7.68,7a59.4,59.4,0,0,0-38.27,3.23C223.24,286.26,216.39,308.34,216.39,308.34Z" transform="translate(12.08 16.11)"/><path class="cls-8" d="M428.13,298.59s-12.63-17.74-34.76-19.25-47,11.39-49.28,11.12c-1.68-.2-3.69-11.24-3.7-12.33s10.5-11.88,10.5-11.88l-3.24,7.18,10.76-9.55-7,10.47,12.1-9.49L358,271.5l11.52-7.85-5.21,5.89s23.19-4.72,40,2.65S428.13,298.59,428.13,298.59Z" transform="translate(12.08 16.11)"/></g><path id="Hair" class="cls-8" d="M192.63,329.66,188.84,323l-15.23-91.35s-4.27-18.75-4.27-25.51,6.4-24.75,6.4-24.75l-5.18-6.75,2.13-4.13-3.35-10.13,7.78-9,11.51-14.78,6.6-14.85s-1.52-8.63,3.66-12.38S230,89.89,230,89.89H217.47l22.63-6.44V79.7s8.74-1.13,15-2.25S313.14,66,329,67.54s48.2,5.86,56.73,25.73,9.13,36,9.13,36,10.05-6.75,21-4.12,24.06,13.5,27.1,23.63,3.66,36.38,4.88,39,8.36,37.13,8.29,41.63.07,39.76,0,45.38-2.58,34.29-2.58,34.29l-13.86-37.82L428.27,256l1.9-7s-8.47-9.27-11-13.87c-.91-1.67-5.29-15.7-5.29-20.57s.23-14.8.23-14.8A117,117,0,0,0,383,175.06c-19-10.37-38.39-7.62-46-3.87s-18.15,13.37-20.58,14.41c-2.52-1.45-19.39-12.76-25.18-14.26s-21.68-7.25-41.47,7.75S228.43,195.68,222,204.44c-5.61,7.69-10.93,56.86-12.15,61.74s-13.18,17.3-13.49,22.26S192.63,329.66,192.63,329.66Z" transform="translate(12.08 16.11)"/><g id="RightEar"><path class="cls-3" d="M452.5,298.22s1.3-3.91,3.53-5.42,9.43-5.17,12.93-5a9.87,9.87,0,0,1,8.27,6.39c1.11,3.37,2.7,18.19,1.59,22.06s-3,11.1-4.14,12.95-5.85,8.08-6.58,12.29S466.25,355,465.46,358s-5.84,10.91-7.11,10.91C457.77,352.89,452.5,298.22,452.5,298.22Z" transform="translate(12.08 16.11)"/><path class="cls-4" d="M452.49,298.22a16.8,16.8,0,0,1,1.49-3.15,7.33,7.33,0,0,1,2.37-2.52,43.55,43.55,0,0,1,6.2-3.16,31.16,31.16,0,0,1,3.28-1.17,8.58,8.58,0,0,1,9.53,2.73,9,9,0,0,1,1.87,2.95,22.18,22.18,0,0,1,.79,3.41c.39,2.29.65,4.6.87,6.91s.36,4.63.39,7a33.72,33.72,0,0,1-.12,3.48,16.3,16.3,0,0,1-.78,3.4c-.63,2.23-1.26,4.47-1.95,6.69-.35,1.1-.71,2.21-1.14,3.29a14.31,14.31,0,0,1-1.76,3,58.1,58.1,0,0,0-3.65,5.92,16.14,16.14,0,0,0-2.05,6.59c-.7,4.58-1.22,9.2-2.12,13.76a12.28,12.28,0,0,1-1.22,3.27c-.52,1.05-1.09,2.06-1.69,3.05s-1.25,2-1.93,2.91c-.35.47-.7.93-1.09,1.37a6.13,6.13,0,0,1-.62.63,1.59,1.59,0,0,1-.81.47h-.11v-.12c-.26-5.9-.71-11.8-1.16-17.69l-1.47-17.67Q454.13,315.87,452.49,298.22Zm0,0q1.74,17.64,3.34,35.3l1.47,17.67c.45,5.9.89,11.79,1.14,17.7l-.11-.11a1.44,1.44,0,0,0,.66-.41,5.78,5.78,0,0,0,.6-.61c.38-.43.74-.89,1.08-1.35.69-.93,1.33-1.9,1.93-2.88s1.18-2,1.7-3a12.64,12.64,0,0,0,1.22-3.23c.91-4.54,1.45-9.16,2.17-13.74a22.28,22.28,0,0,1,.69-3.42,22,22,0,0,1,1.4-3.19,65.49,65.49,0,0,1,3.65-5.93,14.23,14.23,0,0,0,1.74-3c.43-1.08.78-2.18,1.12-3.29.69-2.22,1.31-4.45,1.93-6.69a16.57,16.57,0,0,0,.76-3.37,30.87,30.87,0,0,0,.1-3.47c0-2.32-.2-4.63-.42-6.94s-.51-4.61-.87-6.9A22.55,22.55,0,0,0,477,294a8.59,8.59,0,0,0-1.81-2.9,9.54,9.54,0,0,0-6-3.17,9.42,9.42,0,0,0-3.41.43,34.24,34.24,0,0,0-3.27,1.15,43.5,43.5,0,0,0-6.21,3.13A7.34,7.34,0,0,0,454,295.1,16.58,16.58,0,0,0,452.51,298.22Z" transform="translate(12.08 16.11)"/><path class="cls-9" d="M456.15,309.5s7.46-11.25,10.41-12.23c1.3-.43,6.87-.18,7.15,1.32s2.2,7.64,1.78,10.84a71.85,71.85,0,0,1-1.95,8.62c-.28,1.43-.14,5.08-.73,5.82s-4.38,4.93-4.87,6-5.2,10.48-6,10.78-3.46-5.21-2.83-6.38,7.82-8.82,8.55-10.52,3.45-9.83,3.24-10.53-2.33,1.11-3.2,3.21-1.53,5.08-2.05,5.74-6.8,3.78-7,4.52-1.05,1.61-1.19,1,1.71-9.5,1.81-11,.11-6.12-1-6.56S456.91,310.08,456.15,309.5Z" transform="translate(12.08 16.11)"/></g><g id="LeftEar"><path class="cls-3" d="M191.32,323.61s-6.53-8.2-13.53-8.2-11.14,6.24-11.45,8.93-.8,25.91,0,27.59,7.95,10.44,10,14.14a64.58,64.58,0,0,1,5.72,17.67c.8,5.56,7.8,15.49,8.75,17.51s3.06,3.34,6.24,5,2.06,0,2.06,0Z" transform="translate(12.08 16.11)"/><path class="cls-4" d="M191.31,323.61a29.85,29.85,0,0,0-5.8-5.31,17.49,17.49,0,0,0-3.44-1.9,11.13,11.13,0,0,0-3.81-.91,11.3,11.3,0,0,0-7.34,2.31,13.93,13.93,0,0,0-2.75,2.78,9.51,9.51,0,0,0-1.69,3.49c-.28,2.6-.26,5.25-.35,7.88l-.12,7.89c0,2.64,0,5.27.05,7.9a28,28,0,0,0,.29,3.91,1,1,0,0,0,.17.44,4.64,4.64,0,0,0,.25.42c.17.28.36.54.55.81l1.16,1.6,4.71,6.35a36.4,36.4,0,0,1,4.16,6.7,69.18,69.18,0,0,1,2.76,7.4A59.32,59.32,0,0,1,182,383a23.14,23.14,0,0,0,2.61,7.39c1.19,2.34,2.54,4.6,3.92,6.85.68,1.12,1.39,2.23,2.06,3.37a9.68,9.68,0,0,0,1,1.68,8.51,8.51,0,0,0,1.4,1.35,22.91,22.91,0,0,0,3.33,2.08c.58.3,1.16.63,1.76.88a3.12,3.12,0,0,0,.9.25c.16,0,.21,0,.2-.16a1.19,1.19,0,0,0-.17-.41l0,0v0L195.11,365Zm0,0,4,41.31,3.9,41.34,0-.05a1.31,1.31,0,0,1,.2.5.34.34,0,0,1-.11.32.47.47,0,0,1-.31.09,3,3,0,0,1-1-.27c-.61-.26-1.19-.58-1.77-.89a23.29,23.29,0,0,1-3.35-2.11,8.19,8.19,0,0,1-1.43-1.39,11,11,0,0,1-1-1.71c-.65-1.13-1.36-2.25-2-3.37-1.37-2.25-2.71-4.52-3.9-6.88a23.47,23.47,0,0,1-2.6-7.44A59.29,59.29,0,0,0,180,375.4a62.47,62.47,0,0,0-2.76-7.39,36.59,36.59,0,0,0-4.18-6.67L168.35,355l-1.16-1.59c-.19-.27-.38-.54-.56-.82s-.18-.28-.26-.43a1.48,1.48,0,0,1-.18-.47,27.91,27.91,0,0,1-.31-4c-.08-2.63-.08-5.26-.07-7.9s0-5.27.11-7.9.09-5.26.38-7.9a9.6,9.6,0,0,1,1.75-3.55,13.46,13.46,0,0,1,2.79-2.8,11.48,11.48,0,0,1,7.43-2.3,11,11,0,0,1,3.83.93,17.7,17.7,0,0,1,3.45,1.93A30.29,30.29,0,0,1,191.34,323.6Z" transform="translate(12.08 16.11)"/><path class="cls-9" d="M189.8,334.51s-4.14-3.83-6-5.43a19.48,19.48,0,0,0-6.63-3.23c-.76,0-4.14-1.9-5.14-.42s-3,14-2.59,16.17,0,9.06.92,10,3.42,4,4.38,4.88,6.76,4.54,7.23,4.37-3.37-4.37-4.61-5.67-3.54-3.5-3.78-4.68-.47-6.91.64-6.82,8,5.42,9.31,6.93,1.55,7.84,2.66,9.52,3.62,5.18,3.82,6.57.2,5.44.8,6.78,2.87,8.26,3.58,8.3.4-2.82-.32-3.87a25.63,25.63,0,0,1-2.54-6.19c-.16-1.27-.64-6.41-.84-7.42s-2.07-7.28-2-8.13S185.47,344,186.74,343s2.31-.72,2.95-1.52a6.2,6.2,0,0,0,.79-3.62C190.44,336.58,190.52,335.52,189.8,334.51Z" transform="translate(12.08 16.11)"/></g><g id="Nose"><path class="cls-10" d="M312.14,410.49a6.9,6.9,0,0,1-9.31-2.53c1.54-1,2.77-2,3.77-1.82S309.15,408.45,312.14,410.49Z" transform="translate(12.08 16.11)"/><path class="cls-10" d="M359.47,401.88a8.12,8.12,0,0,1-4.92,3.86c-2.78.92-5.47.58-6.71-.69,1.76-1.71,3-3,3.84-3.3C353.24,401.28,356.48,401.69,359.47,401.88Z" transform="translate(12.08 16.11)"/><path class="cls-4" d="M367.81,380.55c3.2,3,6.13,6.15,9.32,8.81l2.52,2c.85.69,1.69,1.38,2.57,2a50.45,50.45,0,0,0,5.52,3.44c1.91,1,3.81,2.05,5.68,3.08s3.84,1.93,5.74,2.85l1.49.73a8.92,8.92,0,0,1,1.49,1,12.24,12.24,0,0,1,2.34,2.58,22.25,22.25,0,0,1,1.74,2.84,15,15,0,0,1,.69,1.52,3.92,3.92,0,0,1,.35,1.68.08.08,0,0,1-.1.08.09.09,0,0,1-.08-.06l0,0a9,9,0,0,0-1.7-2.63c-.67-.82-1.37-1.63-2.1-2.39a13.89,13.89,0,0,0-2.26-2,8.88,8.88,0,0,0-1.27-.71l-1.46-.64a50.6,50.6,0,0,1-5.79-3.15,51.59,51.59,0,0,1-5.34-3.8,64.73,64.73,0,0,0-5.28-3.81c-.92-.58-1.87-1.11-2.83-1.62s-1.89-1-2.89-1.6a23.81,23.81,0,0,1-4.81-4.58,32.37,32.37,0,0,1-3.68-5.45.11.11,0,0,1,.05-.14A.09.09,0,0,1,367.81,380.55Z" transform="translate(12.08 16.11)"/><path class="cls-4" d="M265.55,418.56a49,49,0,0,1,3.74-3.62c1.29-1.14,2.58-2.26,3.9-3.31.65-.53,1.33-1,1.92-1.6a17.48,17.48,0,0,0,1.64-2,29.65,29.65,0,0,0,2.55-4.5c.72-1.58,1.49-3.13,2.33-4.64.42-.76.84-1.52,1.28-2.28.21-.38.45-.75.7-1.13L284,395c.09-.13.19-.3.3-.47,1.74-2.85,3.44-5.92,5.51-8.73a.1.1,0,0,1,.18.08,44.51,44.51,0,0,1-1.65,5,38.83,38.83,0,0,1-2.22,4.78l-2.87,4.32q-1.41,2.16-3,4.23a44.58,44.58,0,0,0-2.94,4.29L276,410.71a15.27,15.27,0,0,1-1.66,2.14,25.26,25.26,0,0,1-4.08,3.31,27.28,27.28,0,0,1-4.58,2.56.1.1,0,0,1-.13-.05A.09.09,0,0,1,265.55,418.56Z" transform="translate(12.08 16.11)"/><path class="cls-4" d="M293.15,381.67a13.19,13.19,0,0,0-4.17,7.59,18.59,18.59,0,0,0,.86,8.62,33.14,33.14,0,0,0,3.59,7.94,9.37,9.37,0,0,0,2.85,2.95,4.33,4.33,0,0,0,3.68.14,14.44,14.44,0,0,0,3.56-2.26,7.4,7.4,0,0,1,2.17-1.27,2.26,2.26,0,0,1,.85-.1,2.08,2.08,0,0,1,.87.28,6.56,6.56,0,0,1,1,.76c1.16,1,2.2,2,3.36,2.82a21.06,21.06,0,0,0,3.67,2.19c5.15,2.43,11.22,2.54,16.82,1.37a28.61,28.61,0,0,0,8-3.06,33.64,33.64,0,0,0,6.85-5.27l1.6-1.54a14,14,0,0,1,1.83-1.56,3.3,3.3,0,0,1,.68-.35,4.43,4.43,0,0,1,.66-.18,11,11,0,0,1,1.21-.17c.78-.08,1.54-.09,2.3-.1,3,0,6,.25,8.92.33a4.66,4.66,0,0,0,.95-.05,4.4,4.4,0,0,0,.9-.27,7.18,7.18,0,0,0,1.69-1.05,11.22,11.22,0,0,0,2.59-3.24c1.32-2.44,1.86-5.49.58-8a46.92,46.92,0,0,0-4.36-7.66,13.29,13.29,0,0,0-3.08-3.09,5.67,5.67,0,0,0-4.15-1.07,5.78,5.78,0,0,1,4.33.78,13.81,13.81,0,0,1,3.38,3A43.63,43.63,0,0,1,372,387.7a8.29,8.29,0,0,1,1,4.63,11.81,11.81,0,0,1-1.28,4.51,12.44,12.44,0,0,1-2.85,3.74,8.22,8.22,0,0,1-2,1.35,6.11,6.11,0,0,1-1.23.4,6.29,6.29,0,0,1-1.25.1c-3,0-6-.22-8.9-.16a21.41,21.41,0,0,0-2.14.12,3.88,3.88,0,0,0-1.71.44,12.92,12.92,0,0,0-1.53,1.36l-1.58,1.57a36.8,36.8,0,0,1-7.21,5.59,29.66,29.66,0,0,1-8.57,3.29,33.7,33.7,0,0,1-9.13.67,24,24,0,0,1-8.92-2.29,23.67,23.67,0,0,1-3.93-2.44c-1.23-.92-2.36-2-3.42-2.95a5.26,5.26,0,0,0-.74-.58c-.12-.06-.11-.07-.17-.07a.48.48,0,0,0-.25,0,6.15,6.15,0,0,0-1.65,1,15.85,15.85,0,0,1-4,2.37,5.83,5.83,0,0,1-4.92-.35,10.31,10.31,0,0,1-3.2-3.49,33.28,33.28,0,0,1-3.44-8.37,19.36,19.36,0,0,1-.44-9,13,13,0,0,1,1.68-4.17A13.74,13.74,0,0,1,293.15,381.67Z" transform="translate(12.08 16.11)"/></g><g id="Shirt"><path class="cls-11" d="M351.41,603.16C270,607.84,236.5,557.05,249.67,509.52c-4,.65-23,3.67-25.15,5.2s-3.29,5.68-5.94,6.51-37.69,6.34-42.6,9.1-7.07,7.65-10.14,9.18-43.63,11.93-47,11.93-3.07-5.51-12.6-1.22-21.5,14.69-28.88,16.83-23,2.45-25.8,6.12,1.84,11.32,0,11.63-6.76-4.29-12.6-1.53-5.22,11-5.22,11-21.82,19-24.89,21.12-11.43,2.14-11.43,7V864H648V583.57a38.44,38.44,0,0,1-8.7-4.28c-4-2.76-25.51-12.85-31.65-14.69s-4.3-7.35-12.9-10.41-16.6-8.86-23-8.71-10.75.45-14.75-1.69-8.6-6.12-12.28-6.43-43-4.89-43.94-6.12-.61-7.17-8-10-16.9.09-19.66,0-11.37-6.51-18.74-6.82-13.21-.61-15.37-.61-11.21-4.61-16.28-4.28c-3.23.2,11.78,3.37,15.06,8C468.16,560,395.29,600.63,351.41,603.16Z" transform="translate(12.08 16.11)"/><path class="cls-12" d="M591.33,563s16.47,5,20.47,11.43,5,26.11,6.25,31.77,10.86,29.39,10.78,33.13-3.35,23.56-3.35,23.56-2.25-29.72-4.34-32.46-18.72-33.38-19.81-39S591.33,563,591.33,563Z" transform="translate(12.08 16.11)"/><path class="cls-12" d="M502.83,535.93s3.62-1.09,7.61,5.37,9.89,23.89,11.14,29.55,7.51,20.92,7.43,24.66-.7,40.31-.7,40.31-4.64-49.63-6.73-52.38-7.65-13.46-8.74-19S502.83,535.93,502.83,535.93Z" transform="translate(12.08 16.11)"/><path class="cls-12" d="M171.75,538.45s-6.7,12.71-9.91,19.18-8,23.88-9,29.54-6,20.92-6,24.67,16.46,40.31,16.46,40.31-13.45-42.24-11.77-45,6.42-25.75,7.29-31.33S171.75,538.45,171.75,538.45Z" transform="translate(12.08 16.11)"/><path class="cls-12" d="M51.55,584.8s3.21,1.45,0,7.92,14.17,29.36,14.17,29.36-8.16-21-7.29-26.57S51.55,584.8,51.55,584.8Z" transform="translate(12.08 16.11)"/><path class="cls-12" d="M587,595.51s5.63,11,5.63,14.14-3.83,78.79-3.83,78.79-.9-56.34-1.8-62.18S587,595.51,587,595.51Z" transform="translate(12.08 16.11)"/><path class="cls-12" d="M603.93,786.3l8.79-90.46s.35,84.17-2.64,100.56-6.15,74.07-6.15,74.07a394,394,0,0,1-4.28-51.4C599.2,791,603.93,786.3,603.93,786.3Z" transform="translate(12.08 16.11)"/><path class="cls-12" d="M-2.59,695.39s19.93,15.72,26.92,21.33,25.24,26,25.24,26l-2.26-11.89S35.82,722.1,24.78,712-2.59,690.91-2.59,690.91Z" transform="translate(12.08 16.11)"/><path class="cls-12" d="M-2.59,742.75S19.82,750.83,26.35,754s27.72,14.14,27.72,14.14l-1.58-5.39s-22.18-10.55-26.75-11.9S-2.59,739.39-2.59,739.39Z" transform="translate(12.08 16.11)"/><path class="cls-12" d="M-2.59,780.91s28.27,9.43,34.13,11.9,32,16.38,32,16.38l-2-7.85S43,792.13,32.89,788.54L-2.59,776Z" transform="translate(12.08 16.11)"/><path class="cls-12" d="M80,857s8.56-54.09,8.34-61-5.41-17.51-5.41-22.67,2.25-37.71,2.25-37.71S82,711.78,82.69,708.41,88.33,655,88.33,655s-5.18,43.32-4.17,47.81S86.3,732,87,735.12s2.48,31.43,2.71,38.16,1.12,44.22,0,53.64S86.52,860,86.75,864,80,864,80,864Z" transform="translate(12.08 16.11)"/><path class="cls-13" d="M237.12,511.66s-9.7,36.49,6.78,65.42,61.23,48.47,99.3,48.47,86.35-17,107.54-45.34c20-26.79,17.42-37.92,15-47.69s-12.54-17.33-20.39-18.5" transform="translate(12.08 16.11)"/><path class="cls-14" d="M190.83,865.78s-.66,1-.4-1.78" transform="translate(12.08 16.11)"/><path class="cls-15" d="M528.31,835.8s1.78,4.08,2.71,6.93,3.64,8.25,4,9.63S539.38,864,539.38,864" transform="translate(12.08 16.11)"/><path class="cls-15" d="M533.19,864s-.62-1.85-1.24-4.16-2.94-7.94-2.86-8.56a50,50,0,0,0-1.55-7.86c-.39-.77-2.71-4.75-2.71-4.75" transform="translate(12.08 16.11)"/><path class="cls-15" d="M521.58,864s-1.7-4.7-1.77-7,.07-7.4-.47-8.48" transform="translate(12.08 16.11)"/><path class="cls-15" d="M516.4,848.05a47.09,47.09,0,0,0,0,5.85,32.75,32.75,0,0,1,.54,4.24c-.07.77.39,5.94.39,5.94" transform="translate(12.08 16.11)"/><path class="cls-15" d="M510.44,864s-1.47-6.32-1.39-7.74" transform="translate(12.08 16.11)"/><path class="cls-15" d="M506.27,861.15a1.74,1.74,0,0,1,1.16,1.61V864" transform="translate(12.08 16.11)"/><path class="cls-16" d="M457.41,761.73s-6.36-.9-9.23-.9-10.76-.05-14.63.9-16.63.48-18.88.18" transform="translate(12.08 16.11)"/><path class="cls-16" d="M457.41,761.73s-6.36-.17-9.23-.17-10.84,1.41-14.71,2.36-16.94.7-19.18.39" transform="translate(12.08 16.11)"/><path class="cls-16" d="M459.16,765.64s-8.11-1.51-11-1.51-10.84,1.4-14.71,2.35-16.94.7-19.18.39" transform="translate(12.08 16.11)"/><path class="cls-16" d="M460.47,767.15s-9.42.53-12.29.53-10.84.45-14.71,1.4-19.26,1-21.5.67" transform="translate(12.08 16.11)"/><path class="cls-16" d="M405.44,776.85s13.64.68,17.36,0,14.62-3.93,17.87-4,12.06-.23,17.33.77,12.6,3.52,15.08,3.53,13.54,4.56,15.78,4.94,8.36,3.39,10.6,3.39,10-1.37,10-1.37" transform="translate(12.08 16.11)"/><path class="cls-16" d="M405.83,780.27s13.64.69,17.35,0,14.47-3.11,17.72-3.19,12.22-1,17.48,0,12.87,2.43,15.08,3.54c2.87,1.44,12.62,5.67,14.86,6.06s9.28,2.34,11.52,2.27a49.67,49.67,0,0,1,15.32,2" transform="translate(12.08 16.11)"/><path class="cls-16" d="M403.82,784.23s13.64.69,17.35,0,14.47-3.11,17.72-3.19,12.07-.1,17.33.9,13.57,3.13,15.78,4.24c2.86,1.43,12.3,2.38,14.54,2.77s9.11,3.41,11.3,3.92c8,1.86,22,2.86,22,2.86" transform="translate(12.08 16.11)"/><path class="cls-16" d="M396.36,787.72s12.7,2.26,16.46,1.85c4.17-.47,26.69-5.4,29.94-5.47s7.27,1.61,12.53,2.62,19.29.89,21.5,2c2.87,1.43,8.13,2.53,10,3.85,2.17,1.54,5.34,4.06,7.58,4,9.57-.23,30.66,6,30.41,7" transform="translate(12.08 16.11)"/><path class="cls-16" d="M393.94,791s12,6.09,15.24,8.17a44,44,0,0,0,11.22,4.47,50.8,50.8,0,0,1,9.67,2.07c2.24.93,8.51,3.94,10.21,4.48a44.16,44.16,0,0,0,6.27.91" transform="translate(12.08 16.11)"/><path class="cls-16" d="M445.46,814s-10.29-.31-14.7-.85-9.36-1.23-13.15-2.85a99.59,99.59,0,0,0-13.07-4.63c-2.86-.61-10.37-4.61-10.6-5.23" transform="translate(12.08 16.11)"/><path class="cls-16" d="M388.46,805.66a13.84,13.84,0,0,1,3.93,1.09c1.4.77,9.09,5,11.43,5.85s19.91,5.4,23,5.86,15.47,2.62,19.73,3.85,13.53,5.24,20.19,6,23.59,1.39,26.22,1.62,12.3,1,18,2.62,12.95,5.92,13.85,5.39-.7-2.08-4.49-4.23-20.89-7.65-22.74-8-21.51-6.54-24.06-8-23-9.56-25.29-10.56S420,796,420.24,796.5s3.79-1.85,8.59-1.31a37.36,37.36,0,0,1,10.37,2.62c1.7.77,16.47,7.63,19.1,8.25s20,8.16,23,9,15.7,6.78,18.49,7.55,12.07,2.62,15.7,4,11.37,5.08,12.46,6.39,2.72-2.85,2.72-2.85-2.26-1-5-2.46-16.79-7.32-20-8.17-18.57-6.16-20.5-7.17-8.9-3.08-14.55-5.62-13.19-6.63-13.19-6.63" transform="translate(12.08 16.11)"/><path class="cls-16" d="M474.78,801.59s12.22,5.54,15,6.85,11.84,5.47,17.48,7.32,5.65.85,10.21,2.93,14.32,9,14.32,9l1.39-1.62s-7.2-4.24-9.28-5.16-9.67-4.55-11.3-5.32-10.75-5-11.53-5.47-6.11-3.85-6.11-3.85" transform="translate(12.08 16.11)"/><path class="cls-16" d="M517.33,846.35s-4-1.62-5.65-2-11.14-2.23-13-2.7-9.44-1.92-10.91-2.39A94.67,94.67,0,0,0,476,838c-2.17,0-15.7-1.59-17.64-2.2s-12.45-3.62-14.85-4.32-11-3.54-13.23-3.77a52.27,52.27,0,0,1-9.44-2.47c-3.09-1.08-10.13-1-11.37-1.69S396,817.69,395,817.61s-9.82-3-9.82-3l8.28,3.66c1.93.84,8,4.16,9.44,4.77s13.53,5.55,15.16,5.94,12.76,3.93,15.39,4.23,7.66,3.09,11.53,3.32,11.37,1.77,14.08,1.77,11,3.62,12.69,3.93,10.05-.31,11.6-.23,8.82.46,10.21.69,11.91,3.93,13.27,4.55S513,849.9,513,849.9" transform="translate(12.08 16.11)"/><path class="cls-16" d="M503.71,861.15a56.13,56.13,0,0,0-8.27-2.47c-3.48-.62-18.65-3.39-21.35-4s-16.17-4.15-18.72-4.77-12.38-5.09-14.63-5.47-11.52-3.86-12.84-3.86-4.95-1.69-5.64-.61,3.55,2.93,5.57,3.77,12.53,2.78,14.46,3.55,11.84,4.31,13.23,4.7,11.06,3.23,12.84,3.7,14.78,4.12,16.79,4.45,11.52,2.41,12.84,2.44a32.43,32.43,0,0,1,4.48.84" transform="translate(12.08 16.11)"/><path class="cls-16" d="M472.62,864s-21.1-5.86-24.44-6.09-20.05-4.16-21.59-4.47-6.66-3.23-9-3.54-9.52-1.78-10.37-1.85-4.56-.93-4.87,0,3.79,3.11,5.26,3.29,15.78,3.72,17.33,3.87,15.39,5.63,16.63,5.94,8,2.85,8.28,2.85l-6.43.08s-4.95-1.24-7.27-1.51-12.3-3.27-13.92-3.27-10.52-2.54-12.07-3.23-11.76-3.94-14.62-3.78-6.5.61-9.13.46-8.9-1.77-10.6-1.85a39.77,39.77,0,0,1-5.34-1l-1.85,3.62a26.83,26.83,0,0,1,3.87,0c1.93.15,9.43,2.24,11.14,2.55s3.66.53,4.88.68,4.09.93,5.79,1,8.12.23,10.52.77,7.82,1.61,9.52,2.08,6.42,1.54,8.82,2,6.11,1.43,6.11,1.43" transform="translate(12.08 16.11)"/><path class="cls-16" d="M411.89,864a17.26,17.26,0,0,0-4.57-1.43c-2.39-.34-4.48-1.65-6.18-1.42a15.44,15.44,0,0,1-5.81,0c-3.63-.47-8.2-.54-10.52-1.47s-4.64-2-6.11-2-7.66-1.39-8.66-1.42-3.17-.19-3.17-.19" transform="translate(12.08 16.11)"/><path class="cls-16" d="M380.83,826.49a10.16,10.16,0,0,1,4.83,0,34.16,34.16,0,0,1,5.42,2.6" transform="translate(12.08 16.11)"/><path class="cls-17" d="M347.61,863.7s-6.61.67-8.33.3-11.76,0-13.48-.59-10.83-1-12.35-.37a25.63,25.63,0,0,1-5.22,1" transform="translate(12.08 16.11)"/><path class="cls-17" d="M364.85,856.46s-5.75-2.11-9.78-3.09-7.53-2-9.91-1.87-4.29.42-5.75.35-2.9-.33-3.76.2a79.65,79.65,0,0,1-9,3.8A60.14,60.14,0,0,1,315.43,859c-2.38.33-8.92.59-10.9.65s-10.11.2-12.36,1.19" transform="translate(12.08 16.11)"/><path class="cls-17" d="M369.21,848.76a36.21,36.21,0,0,1-5.42-1.45c-1.39-.65-5-3.42-6.67-3.48a30.85,30.85,0,0,1-7.8-2c-.92-.6-8.12-2.27-9.44-2.19s-10.31-.64-12.82-.71-9.25-.33-10.44-.33a30.87,30.87,0,0,1-6.54-.56c-1.45-.49-6.74-2.2-8.06-2.2s-9.38-1.78-11.83-1.65-10-.52-11.3-.46-13.21-.06-13.74-.92,5.49-1.91,7.93-2,5.62.79,7.27.79,6.27-.53,8.39-.39,6.61,1.77,8.72,1.77,6.8.66,7.47.66,2.24,1.45,3.76,1.51,9,1.25,12.29,1.39,8.92.85,10.7.85,7.47,1.25,9.05,1.12,7.54.26,8.79.26,9.25.33,10.77.46,4.49.45,5,.59-1.72.6-1.85-1.38.07-4.73-1.45-5.06a76.13,76.13,0,0,0-8.06-1.85c-3.44-.46-13-2.69-13.94-3.35s-5.22-2-5.75-2.5-3.9-1.71-6.87-1.12-14.6,1.89-17,1.7-15.46-1.5-18.83-1a172.34,172.34,0,0,1-17.64,1,59.79,59.79,0,0,1-10.51-1c-2.11-.6-7.13.19-9.05.19s-8.26.14-9.58.07-7.92-.86-9.38-.46l-7.4,2" transform="translate(12.08 16.11)"/><path class="cls-17" d="M333.14,824.32a18.09,18.09,0,0,1,6.27,0c2,.36,8.46,1.72,10.38,1.86s7.53,2.05,9,1.46,2.67-3,2.13-3.59-4.37-1.22-5.33-1.28-9.29-1.65-10.54-1.45-6.94-1.45-8.79-1.84a33.46,33.46,0,0,0-6.74-1c-2.31,0-3.83-2-5.15-1.51s-9.18,1.45-10.18,2.3-3.63,1.25-3.89.2-2.45-3.29-3.64-3.36-4.69-1.84-6.47-1.77-9.38,1.71-10.84,2.56-3.89.33-5.81.33-7.07-1.71-8.85-1.84-8.53.52-10.64-.07-4.36,1.13-6.28,1.22-11.82.3-12.95,0a57.37,57.37,0,0,0-8.72-.95c-2.44,0-6.08-.93-8.59-.53s-14.53.79-15.92,1a45.58,45.58,0,0,1-5,.33s20-1.11,21.89-1.8-.27-1.49,1.65-1.49,5.81-.59,8.92,0a37.51,37.51,0,0,0,9.25.83c3.24-.17,10.5-.11,12.55-.7s4-1.91,8.39-2.24,11.23,1.32,14.07,1.78a55.13,55.13,0,0,0,10.05.73c2.38-.2,5.35-1.52,6.47-1.39s7.73.14,8.46.6.79,3.94,2,4.14a24.19,24.19,0,0,0,7.53-.36c2.31-.63,2.84-1.81,6-1.61s4.76,1.72,6.61,1.61,8.12-1,10.83-1.22,13.22-.18,13.22-.18" transform="translate(12.08 16.11)"/><path class="cls-17" d="M199.74,843.23s.73-.26,5.22,0,5.75-.64,7.73-.06a48,48,0,0,0,9.06,1.51c2.37.07,10.76,1.32,14,1.32s9.05-.46,10.51-.33a75.63,75.63,0,0,0,10.24-.59c2.44-.4,9,2,10.9,1.63s3.83-1.3,5.09-1.3,10.86-.14,12.3.06,6.19-.2,7.38-.13,12,.72,12.69.39,3.7-3.29,2.91-3.62A104.1,104.1,0,0,0,295.28,841c-3.44-.07-6.74.92-9.71.92s-10.71-.73-12.69-.4-15.19.86-16.05.66-7.14-1.38-9-1.64-13.15-.2-15.26,0-13,.46-13.81.39-9.64-.26-10.9-.2a58.06,58.06,0,0,1-8.15-.37" transform="translate(12.08 16.11)"/><path class="cls-17" d="M254.45,864.08s5.48-2.22,7.13-2.55,5.88-4.15,7.67-4.41,6-2.63,6.67-3,6.08-3.49,7.07-3.68,5.15-2.7,5.15-3.23v-1.71" transform="translate(12.08 16.11)"/><path class="cls-17" d="M268.26,864.42c1.25-.85,3.63-2.89,4.89-2.89s7.07-3.59,8.06-4.07,4.75-3.17,5.81-3.63,5-4.94,5.62-5.07,3.75-2.18,3.5-2.7-1.06-.59-1.06-.59" transform="translate(12.08 16.11)"/><path class="cls-17" d="M310.34,801.18s-4.89.2-6.8,0-10.57-.59-12.16,0-6.48-.08-7.6.09-8.52-.81-9.44-.81-5.88-.54-6.88.49-6.87,1.81-8.25,2.54" transform="translate(12.08 16.11)"/><path class="cls-17" d="M269.84,796.25a25.61,25.61,0,0,1,6.54-.59c2.71.26,6.54-.07,9.39.59s8.48.2,10.38,0a75.24,75.24,0,0,1,11.42.34c1.91.38.51-3.69-.08-3.63s-4.68-.46-5.74,0a35.74,35.74,0,0,1-7.53,1.31c-1.91.07-6.6.42-6.6.42" transform="translate(12.08 16.11)"/><path class="cls-17" d="M303.54,787.23a24.93,24.93,0,0,1-4.23.73,31.11,31.11,0,0,1-7.14.26c-1.45-.26-10.17-3.29-12.55-2.89s-8.72,3.68-9.51,4.8-4.56,5.86-6.21,7.11-10.77,5-14.87,5S235.75,800,234.17,800s-7.54-1.84-8.86-2-4-.46-4-.46" transform="translate(12.08 16.11)"/><path class="cls-17" d="M321.57,829.94c.6,0,10.24-.33,11.24,0a4.15,4.15,0,0,1,1.52.86" transform="translate(12.08 16.11)"/><path class="cls-17" d="M327.19,833.82a32.45,32.45,0,0,1,7.73-.65,50.45,50.45,0,0,1,6.81,1.44" transform="translate(12.08 16.11)"/><path class="cls-17" d="M300.3,859.83a4.36,4.36,0,0,0,4-1.92c1.39-2.24,2.71-7.73,3.57-8s3.17-6.27,5.88-7.46a46.85,46.85,0,0,0,6.41-3.78" transform="translate(12.08 16.11)"/><path class="cls-17" d="M330.51,839.08s-.08,1.85-2.59,4.09-8.26,8.68-9.32,9.54-6.28,4.15-7.07,5.2a13.81,13.81,0,0,1-1.28,1.52" transform="translate(12.08 16.11)"/><path class="cls-17" d="M318.54,858.24a56.08,56.08,0,0,0,5.35-5.66c1.45-2,2.64-4,4.06-4.28s5.05-3.82,5.91-4.15,6.15-4.08,6.74-4.08a9.44,9.44,0,0,0,1.51-.19" transform="translate(12.08 16.11)"/><path class="cls-17" d="M348.76,841.54a9.18,9.18,0,0,1-3.6,2.75c-2,.65-4.49.13-6.28,1.64s-5.28,2.31-6.93,4.91a21.07,21.07,0,0,1-4.76,4.81" transform="translate(12.08 16.11)"/><path class="cls-17" d="M340.6,851.2c1-.66,4-3.34,7-3.58s7.92,0,10.24-.31a10.92,10.92,0,0,0,3.93-1.21" transform="translate(12.08 16.11)"/><path class="cls-17" d="M350.44,852.22s.94-1.54,5.13-1.38,4.68-.18,5.46,0,2.76,1.68,3.82,1.68a17.8,17.8,0,0,0,2.71-.33" transform="translate(12.08 16.11)"/><path class="cls-16" d="M163.79,853.87s2.66-6.56,6.36-10.64,13.87-14.54,15.13-16.05,5-4.28,6.14-5.79,0-3.82,0-3.82-2.64,1.18-3.3,2.37-5.09,5.95-6.41,7.81A162,162,0,0,1,170.21,840c-1,.66-5.15,2.55-5.68,3.55a48.32,48.32,0,0,1-4.69,5.92,28,28,0,0,1-4.16,1.72A3.52,3.52,0,0,1,156.8,848c1.45-1.06,6.54-6.32,8.13-7.18a47,47,0,0,0,6.47-5.52c.79-.86,6.67-6.49,7.4-7.59s5.55-5.64,5.62-6,2.38-4.6,2.05-4.63-1.46.35-1.46.68-3.17,3.55-3.7,4.21-7.13,8.82-7.86,9.41-5,4.54-6.67,5.46a41.42,41.42,0,0,0-6.74,5.26c-.86,1.06-6.21,5.2-6.61,5.93s-1.85,2.8-1.85,2.8" transform="translate(12.08 16.11)"/><path class="cls-16" d="M121.45,851.26s6.94-2.85,10.38-4.55,17-11.64,19.09-13.41,9-9.41,12.09-10.86,9.91-6.47,11.89-6.62,6.25-1.8,7.12-1.05-5.38-7-5.38-7a18.73,18.73,0,0,0-4.89,1.77c-1.8,1.12-9.6,4.74-10.65,5.66s-4.5,2-5.22,2.5-6.68,3.16-9.12,6.06-9,9.56-11.37,11.72-7.06,6.57-9.91,8.41-4.69,3.49-6.6,4.87-4.89.92-4.89.92,2.64-1.93,4.23-3,9.51-7.62,10.77-8.94,13.8-13.42,16.25-15.27,9.12-7.43,14.2-9.67,13.94-5.79,15.13-6.32a1.84,1.84,0,0,0,.93-2,21.62,21.62,0,0,1-4.1,1.58c-1,.07-6.14,1.78-7.27,2.11s-6.07,1.9-8.32,3.48-9.32,5.6-11.89,8.16-6.81,6.78-8.79,8.43-7.86,8-9.78,9.14-6.34,6.12-8.19,7-5.29,4.94-5.29,4.94" transform="translate(12.08 16.11)"/><path class="cls-16" d="M111.41,841.13s5.29-1.91,7.86-4.15,12.89-12.9,14.27-14.94,9.12-11.84,10.51-12.24,9.42-7.89,10.69-8.42,6.95-4.41,7.68-4.41.65-1.77.65-1.77a33.07,33.07,0,0,0-5.54,2.43c-1.52,1-11.56,7.5-11.7,8s-6.8,6.78-7.13,7.5-7.93,10.34-9.91,12.44-6.94,5.79-8.59,6.19a6.29,6.29,0,0,1-2.52.2l4.08-6.87a2.17,2.17,0,0,0,2.54-.18c1.51-1,6.87-5.91,7.79-6.7s5.55-6.46,6.54-7.12,8.52-9.34,10-9.73,11.89-8.24,13.21-8,1.49-4.08,1.49-4.08a6.69,6.69,0,0,0-2.55.33c-1.45.46-3.53.06-6,1.31s-10.82,5.08-11.75,5.77a13.61,13.61,0,0,1-3.51,1.27l3.81-5.31s2.61-.74,4.26-1,4.63-2.27,5.82-2.39,7.39-2.29,8.39-2,1.59-2.3,1.59-2.3a5.33,5.33,0,0,0-2,0c-1.19.19-3.3-.34-4.43.42a43.65,43.65,0,0,1-4.42,2.21" transform="translate(12.08 16.11)"/><path class="cls-15" d="M104.41,856.86a25.59,25.59,0,0,1,.46,5.59c-.2,2.17-.21,5.72-.21,5.72l10.12-2.89a50.93,50.93,0,0,0,1.85-4.94c.33-1.38,3-6.09,4-6.47a11,11,0,0,1,2.84-.37,13.33,13.33,0,0,0-2.64,2.89,65.37,65.37,0,0,0-1.65,8c0,.53,17.37.4,17.37.4a34,34,0,0,0,1.85-4c.47-1.42,1.06-4.84,2-5.1s5.74-1.87,5.74-1.87.86,1.27-.39,3.18-3,3.58-2.84,5.27a3.74,3.74,0,0,1-.8,2.69l30.06-.19a16.52,16.52,0,0,1,0-2.37,39.46,39.46,0,0,1,.47-4.54l1.25.33a7.17,7.17,0,0,0,.53,2.23,32.71,32.71,0,0,0,1.45,3.61l5,.67s-.07-5.33.73-5.79,6.4,0,6.4,0-1.65,4.06-1.12,5.12,4,1.7,4,1.7-.71-4.67,0-5.9,9.52-.6,9.52-.6a23.15,23.15,0,0,1-.94,3.63c-.66,1.91-1.18,3.68-1.18,3.68l10.1-.81s-1.65-.37-1.58-1.36a31.53,31.53,0,0,1,.53-3.16s.86.27,1.05.79.8,2,.8,2l1.32,1" transform="translate(12.08 16.11)"/><polyline class="cls-18" points="186.93 778.97 192.62 781.93 191.58 774.92"/><polyline class="cls-18" points="202.41 766.42 198.62 769.61 202.14 774.92 206.12 772.18"/><line class="cls-18" x1="204" y1="770.67" x2="200.93" y2="773.09"/><path class="cls-18" d="M200.76,751.12l-3.12-5.25s3-3.24,4.66-1.35a2.4,2.4,0,0,1,0,3.37l2.66,1.17-2.66-1.17-2.42,1.74" transform="translate(12.08 16.11)"/><polyline class="cls-18" points="223.99 760.58 220.88 755 226.07 757.07 227.69 751.18 230.58 757.12"/><line class="cls-18" x1="234.73" y1="746.64" x2="237.53" y2="752.76"/><polyline class="cls-18" points="241.68 741.7 244.21 747.05 247.78 744.93"/><path class="cls-18" d="M240.44,720.29l1.94,6.33a12.92,12.92,0,0,1,1.62-.4,8.38,8.38,0,0,1,1.17,0" transform="translate(12.08 16.11)"/><path class="cls-18" d="M249.6,718.08a5.87,5.87,0,0,0,.18,1.89c.22.27,1.62,4.32,1.62,4.32" transform="translate(12.08 16.11)"/><path class="cls-18" d="M264.31,717.32c0,1.79-1.14,3.86-2.93,3.86s-3.66-1.08-3.66-2.87a3.85,3.85,0,0,1,3.52-3.64C263,714.67,264.31,715.53,264.31,717.32Z" transform="translate(12.08 16.11)"/><polyline class="cls-18" points="284.52 733.78 283.25 727.81 289.44 732.12 288.04 726.05"/><path class="cls-18" d="M292.79,702.89A2.7,2.7,0,0,0,290.4,704c-.77,1.26-1.49,2.61-1.22,4s.89,2.43,1.78,2.38,2.51-1.84,2.64-2.52" transform="translate(12.08 16.11)"/><path class="cls-18" d="M300.46,700.51a3.07,3.07,0,0,1,.37,1.12v5a11.14,11.14,0,0,0,1.67.4c.36,0,.85.81,1.4.59" transform="translate(12.08 16.11)"/><path class="cls-18" d="M310,701.27s.18,5.26,0,5.8a4.49,4.49,0,0,0-.18,1.21" transform="translate(12.08 16.11)"/><path class="cls-18" d="M316.71,709.36v-6.65h2.12a6.75,6.75,0,0,0,1.58-.41" transform="translate(12.08 16.11)"/><path class="cls-18" d="M320.6,706.17a1.15,1.15,0,0,1-1.13.45h-2.76" transform="translate(12.08 16.11)"/><path class="cls-18" d="M327,707.65l.73-6.11a5.85,5.85,0,0,0,2.3-.27c.49-.36,1.08-.76,1.08-.76" transform="translate(12.08 16.11)"/><path class="cls-18" d="M330.3,704.42s-.14.45-.9.63a7.51,7.51,0,0,1-2.09,0" transform="translate(12.08 16.11)"/><path class="cls-18" d="M341.49,701.45s-.76-1.21-1.62-.94-1.72.71-1.76,1.48.4,1.08,1.4,1.84,2,1.26,2,2-.95,1.86-1.69,1.82a6.46,6.46,0,0,1-2.23-1.26" transform="translate(12.08 16.11)"/><path class="cls-18" d="M355.08,708.64s.4.14.22.72a7.4,7.4,0,0,1-1,1.62" transform="translate(12.08 16.11)"/><polyline class="cls-18" points="377.72 725.47 380.07 718.63 381.47 725.92"/><line class="cls-18" x1="380.97" y1="724.39" x2="378.16" y2="724.39"/><path class="cls-18" d="M375.07,710l2.17-7.07s3.62,1.11,3.16,3a3.74,3.74,0,0,1-2.21,2.45l.67,2.7-.67-2.7-2.47-.91" transform="translate(12.08 16.11)"/><line class="cls-18" x1="400.74" y1="722.28" x2="398.66" y2="728.48"/><polyline class="cls-18" points="407.1 726.46 409.58 728.71 405.52 731.94 408.14 734.73"/><path class="cls-18" d="M406.49,721.45c0,2-.9,3.06-2.35,3.06a3.22,3.22,0,0,1-3.11-3.28c0-2,1.17-3.69,2.61-3.69S406.49,719.42,406.49,721.45Z" transform="translate(12.08 16.11)"/><polyline class="cls-18" points="423.4 745.34 425.97 739.99 428.54 747 430.93 741.61"/><polyline class="cls-18" points="434.32 750.87 439.69 746.24 439.33 753.12"/><line class="cls-18" x1="436.08" y1="749.68" x2="439.69" y2="751.72"/><path class="cls-19" d="M314.78,805s-.76-34.33,30.66-48.67c35.78-16.32,50.92,30.94,50.92,30.94" transform="translate(12.08 16.11)"/><path class="cls-19" d="M371.93,846.71s-2.58-6.25-3.79-7-8.72-17.52-10.52-20.51-15.78-18.72-17.89-19.32-22,5.54-25,5.1-7.07-10.42-7.37-12.4-7.06-11-8.57-11.86-5.26-7.25-15.48-4.75-14.58-1.09-17.59.86-12.47,10.78-15.18,11.38-7.52-8.24-15-3.3-15.79,15.72-19.09,19.17S205,819.35,201.88,821.15s-4.24,2.56-4.24,2.56" transform="translate(12.08 16.11)"/><path class="cls-20" d="M106.88,850.1s16.38-27.54,19-32.08,30-45.38,34.51-44.62,2.36,22.34,2.65,22.93,9.52-4,11-1.75,2.66,14.61,2.66,14.61,5.69,6.94,8.35,7.7,7.21-.76,8,.75,6.45,11,6.07,15.5,3.42,25.1,3.42,25.1" transform="translate(12.08 16.11)"/><path class="cls-21" d="M217.71,864.08c0-.14-5.14-2-5.85-2.56s-2.63-1.58-7.94-2-18.9-1.22-26.24-2.11-16.32-4.66-21.35-5.74-16.19,2.57-19.18,2.71-11.69-1.63-15.37-2.31-12.37-1.62-14.9-1.08S100,864,100,864" transform="translate(12.08 16.11)"/><path class="cls-22" d="M365.14,864s-4.66-.78-4.21-1.53,7.51-9.73,8-10.63,5-8.39,5.41-8.83a63,63,0,0,0,4.51-7.19c0-.45,3.15-15.87,4.66-17.52s4.21-9,4.51-10.18,2.25-13,3.45-14.37,4.36-6.89,6.92-8.09,6-4,6.31-5.24.9-5.38,2.11-7,5.56-5.4,5.86-6.74.75-6.74,1.95-6.89,4.66-5.87,6.62-6,6.31-1,7.21-1.78,4.51-4.79,6-4.64,7.36,2.55,8.26,2.55,7.52-.15,8.57,1.19,5,9.74,6.77,11.38,9.32,9.6,11.87,10.94,13.08,4.49,15.19,4.78,11,2.4,11.87,2.55,7.07-.3,8.42.3S517,790.3,519.22,793.6s10.52,16.32,10.82,17.21,4.82,14.21,5.42,15.1" transform="translate(12.08 16.11)"/><path class="cls-21" d="M502.08,864s7.22-11,9.77-13.16,9.77-7.83,11.13-9.48,9.62-15.12,11.72-15.57,8,7.78,9.77,11.83,10.08,26.46,10.08,26.46" transform="translate(12.08 16.11)"/></g><g id="Mouth"><path class="cls-23" d="M276.61,444a.07.07,0,0,0-.05.14c2.67,1.5,16.73,9.41,19.46,11.22,3,2,13.14,8.65,34.67,7.05s33.84-9.45,39.51-14.78c5.08-4.78,16.52-16.18,18.8-18.06.07,0,0-.16-.08-.13-4.76,2-42.77,19.49-57.51,21S281.19,444.88,276.61,444Z" transform="translate(12.08 16.11)"/><path class="cls-24" d="M276.61,444c-.18,0,.06.16.18.22l.42.24.84.46,1.67.93,3.33,1.87,6.65,3.77c2.21,1.27,4.44,2.51,6.59,3.89a36.05,36.05,0,0,0,6.76,3.49,52,52,0,0,0,14.83,3.26,89.15,89.15,0,0,0,30.21-2.91,62.7,62.7,0,0,0,14.06-5.84,44.08,44.08,0,0,0,6.28-4.33c1.94-1.63,3.73-3.46,5.57-5.22l10.94-10.68,2.76-2.64.71-.65.37-.32s.16-.19.09,0a.08.08,0,0,0,.08.07c.07,0,0,0-.05,0l-1.75.76-7,3.1c-4.66,2.05-9.35,4.06-14.07,6s-9.47,3.79-14.27,5.53a150.75,150.75,0,0,1-14.6,4.6,40.32,40.32,0,0,1-7.58,1.21,72.66,72.66,0,0,1-7.67-.07c-5.1-.3-10.17-.87-15.22-1.55C296.64,447.76,286.6,446,276.61,444Zm0-.05c10,1.94,20.06,3.63,30.17,4.91,5,.62,10.13,1.15,15.21,1.39,2.54.1,5.08.17,7.61,0a38.17,38.17,0,0,0,7.5-1.19,148.57,148.57,0,0,0,14.55-4.56c4.79-1.73,9.54-3.59,14.26-5.51s9.41-3.91,14.09-5.93l7-3,1.76-.75a.28.28,0,0,1,.18-.05.24.24,0,0,1,.23.22.27.27,0,0,1-.12.23l-.09.07-.36.31-.71.64-2.78,2.62-11,10.62c-1.85,1.76-3.64,3.58-5.61,5.21a48.61,48.61,0,0,1-6.29,4.36,63.42,63.42,0,0,1-14.07,6,86.26,86.26,0,0,1-15,2.85,79.81,79.81,0,0,1-15.3.21,52.25,52.25,0,0,1-14.9-3.42,36.46,36.46,0,0,1-6.77-3.57c-2.13-1.38-4.35-2.64-6.55-3.93L283,447.8l-3.32-1.9L278,445l-.84-.47-.41-.24-.21-.12C276.45,444.1,276.49,443.9,276.62,443.93Z" transform="translate(12.08 16.11)"/><path class="cls-25" d="M327.76,440.93h0c6.3-.54,12.09-3.6,14.48-4,2.19-.37,40.08-6.89,46.4-7.63.15,0,.09.11.06.26-.14.79-38.66,18.64-55.35,21.05-17.12,2.48-52.39-5.56-56.78-6.59-.09,0-.07-.2,0-.21,4.14-.47,34.64-3.85,39.46-3.64C321.2,440.39,327.73,440.92,327.76,440.93Z" transform="translate(12.08 16.11)"/><path class="cls-10" d="M309.37,481.86c0,3.08,17.55,7.39,22,7.08s24.83-7.38,24.19-9.08-15.57-2.15-19.88-2S309.37,478.79,309.37,481.86Z" transform="translate(12.08 16.11)"/></g><g id="Eyes"><path class="cls-26" d="M402.76,307.83S391,318.67,381.89,319.92s-18.54-2-18.54-2-6.17,1.58-6.76,1.53-.78-1.82-.78-1.82,0-3.59-.23-3.19,3.94-2.8,3.94-2.8,9.69-7.38,19.82-7.86S402.76,307.83,402.76,307.83Z" transform="translate(12.08 16.11)"/><path class="cls-4" d="M402.76,307.83a75.89,75.89,0,0,1-8.5,6.65,39,39,0,0,1-9.61,4.89,21.06,21.06,0,0,1-5.34.87,36,36,0,0,1-5.4-.11A49,49,0,0,1,363.32,318h.06c-1.46.37-2.91.73-4.38,1.07-.73.17-1.46.34-2.21.45a.57.57,0,0,1-.34,0,.64.64,0,0,1-.26-.22,1.79,1.79,0,0,1-.26-.54,6.21,6.21,0,0,1-.24-1.12h0c0-1.09,0-2.28-.12-3.28.87-.53,1.81-1.26,2.69-1.91a44.52,44.52,0,0,1,5.6-3.71A39.45,39.45,0,0,1,376.39,304a41.68,41.68,0,0,1,13.37.51A94.9,94.9,0,0,1,402.76,307.83Zm0,0a94,94,0,0,0-13-3.19,41.12,41.12,0,0,0-13.32-.48A39.53,39.53,0,0,0,364,308.89a44.26,44.26,0,0,0-5.57,3.72l-1.35,1a10.91,10.91,0,0,1-1.44,1h-.06c-.07,0-.11-.1-.1-.11a.19.19,0,0,1,0-.1s0-.08.17-.08.11.13.14.17a2.07,2.07,0,0,1,0,.22c0,.15,0,.29,0,.43l0,.84c0,.56,0,1.12,0,1.68h0a6.36,6.36,0,0,0,.23,1.07c.12.33.27.73.6.63.73-.11,1.46-.28,2.19-.44,1.46-.34,2.92-.7,4.37-1.06h.07A49.1,49.1,0,0,0,373.92,320a37.18,37.18,0,0,0,5.38.12,20.16,20.16,0,0,0,5.3-.84,40,40,0,0,0,9.6-4.83A74.73,74.73,0,0,0,402.76,307.83Z" transform="translate(12.08 16.11)"/><path class="cls-27" d="M368.59,313.78a11.92,11.92,0,0,0,2.65,6,38.73,38.73,0,0,0,10.65.19,27,27,0,0,0,7.55-2.43,12.35,12.35,0,0,0,1.19-7.4,12.12,12.12,0,0,0-2.2-5.38,34.89,34.89,0,0,0-9.09-.95A28.76,28.76,0,0,0,370,306,12.32,12.32,0,0,0,368.59,313.78Z" transform="translate(12.08 16.11)"/><ellipse class="cls-28" cx="391.99" cy="328.27" rx="3.07" ry="3.25"/><path class="cls-29" d="M351.42,319.12c-.17-.59-.07-3.09,1.67-4s2.41-1,2.7-.86a8.94,8.94,0,0,1,1,3.36c0,.66.42,1.77-1.08,2A15.39,15.39,0,0,1,351.42,319.12Z" transform="translate(12.08 16.11)"/><path class="cls-4" d="M351.41,319.13a4.24,4.24,0,0,1,.16-2.26,3.27,3.27,0,0,1,1.37-1.82,10.87,10.87,0,0,1,2.09-.92,1.74,1.74,0,0,1,.61-.05.44.44,0,0,1,.31.17,1.49,1.49,0,0,1,.15.27,9.27,9.27,0,0,1,.38,1.08,7.33,7.33,0,0,1,.41,2.23,2.66,2.66,0,0,1-.06,1.15,1.19,1.19,0,0,1-.93.65,7.5,7.5,0,0,1-2.27-.06A21.25,21.25,0,0,1,351.41,319.13Zm0,0c.72.16,1.47.3,2.21.39a7.58,7.58,0,0,0,2.23,0,1,1,0,0,0,.83-.59,2.6,2.6,0,0,0,0-1.08,7.11,7.11,0,0,0-.44-2.18,8.58,8.58,0,0,0-.39-1l-.13-.23a.25.25,0,0,0-.17-.08,1.57,1.57,0,0,0-.51.06,10.13,10.13,0,0,0-2,.9A4,4,0,0,0,351.43,319.11Z" transform="translate(12.08 16.11)"/><path class="cls-30" d="M381.41,311.06c-.2.2-.92-.51-.73-.72a.52.52,0,0,1,.73,0A.51.51,0,0,1,381.41,311.06Z" transform="translate(12.08 16.11)"/><path class="cls-26" d="M242.38,317.38s13,8.54,22.16,8.27,18-5.06,18-5.06,4,1.38,4.54,1.22,1-2.29,1-2.29l-2.69-5.77s-10.66-5.69-20.74-4.49S242.38,317.38,242.38,317.38Z" transform="translate(12.08 16.11)"/><path class="cls-4" d="M242.38,317.38a72.25,72.25,0,0,0,9.44,5A37.57,37.57,0,0,0,262,325.45a21.45,21.45,0,0,0,5.31-.1,38.38,38.38,0,0,0,5.23-1,50.08,50.08,0,0,0,9.94-3.83l.05,0h0c1.15.39,2.3.77,3.47,1.07a7,7,0,0,0,.87.16c.25.05.39-.25.52-.5a8.47,8.47,0,0,0,.53-1.71v.07l-2.69-5.77,0,.05A46.82,46.82,0,0,0,274.73,310a29,29,0,0,0-11.21-.53,54.1,54.1,0,0,0-10.86,3.11A91.1,91.1,0,0,0,242.38,317.38Zm0,0a92.15,92.15,0,0,1,10.24-4.86c1.76-.69,3.54-1.34,5.35-1.87a40.19,40.19,0,0,1,5.52-1.29,29.15,29.15,0,0,1,11.28.49,47,47,0,0,1,10.68,3.79l0,0,0,0,2.69,5.77,0,0v0a9.2,9.2,0,0,1-.55,1.76,2,2,0,0,1-.25.41.53.53,0,0,1-.49.22,5.35,5.35,0,0,1-.92-.17c-1.19-.3-2.34-.68-3.49-1.08h.09a50.63,50.63,0,0,1-10,3.81,37.28,37.28,0,0,1-5.26,1,21.29,21.29,0,0,1-5.35.09,36.92,36.92,0,0,1-10.21-3.12A71.08,71.08,0,0,1,242.38,317.38Z" transform="translate(12.08 16.11)"/><path class="cls-31" d="M276.76,317.38A12.13,12.13,0,0,1,275,323.7a38.65,38.65,0,0,1-10.49,1.95,26.78,26.78,0,0,1-7.81-1.15,12.35,12.35,0,0,1-.9-12.79,35.19,35.19,0,0,1,8.85-2.45,28.81,28.81,0,0,1,9.55.62A12.16,12.16,0,0,1,276.76,317.38Z" transform="translate(12.08 16.11)"/><ellipse class="cls-28" cx="277.69" cy="333.48" rx="3.19" ry="3.38"/><path class="cls-29" d="M294.44,318.82c-.36,1.24-2,1.81-2.74,2.14s-3.83,1-4.32.81.75-1.37.71-2.25-3.18-5.77-2.69-5.77a23.68,23.68,0,0,1,6.19,1.91C293.09,316.58,294.62,318.23,294.44,318.82Z" transform="translate(12.08 16.11)"/><path class="cls-4" d="M294.44,318.82a2.52,2.52,0,0,1-1.08,1.33,9,9,0,0,1-1.55.79,16.21,16.21,0,0,1-3.37.87,4.29,4.29,0,0,1-.88.06.45.45,0,0,1-.24-.06.25.25,0,0,1-.12-.25,1.15,1.15,0,0,1,.15-.43,4,4,0,0,0,.64-1.56,5.7,5.7,0,0,0-.65-1.55l-.83-1.52L285.7,315c-.13-.27-.26-.53-.37-.81,0-.07-.05-.14-.07-.22a.53.53,0,0,1,0-.14.2.2,0,0,1,.06-.11.16.16,0,0,1,.11,0,3,3,0,0,1,.45.07,30.49,30.49,0,0,1,3.37.91,9.34,9.34,0,0,1,3.12,1.52,11,11,0,0,1,1.28,1.18,7,7,0,0,1,.53.69A1.19,1.19,0,0,1,294.44,318.82Zm0,0a1.21,1.21,0,0,0-.28-.79,5.85,5.85,0,0,0-.55-.68,10.82,10.82,0,0,0-1.29-1.15,9.18,9.18,0,0,0-3.12-1.45,33,33,0,0,0-3.36-.85,3.19,3.19,0,0,0-.42,0s0,0,0,0l0,0a.25.25,0,0,0,0,.08,1.39,1.39,0,0,0,.06.19c.11.26.24.52.37.78l.84,1.52.81,1.54a5.67,5.67,0,0,1,.64,1.65,4,4,0,0,1-.69,1.63,1.44,1.44,0,0,0-.15.37c0,.12.09.15.23.16a4.84,4.84,0,0,0,.85,0,16.23,16.23,0,0,0,3.37-.81,8.91,8.91,0,0,0,1.55-.76A2.47,2.47,0,0,0,294.44,318.82Z" transform="translate(12.08 16.11)"/><path class="cls-30" d="M267.33,316.11c-.2.2-.92-.52-.73-.72a.52.52,0,0,1,.73,0A.51.51,0,0,1,267.33,316.11Z" transform="translate(12.08 16.11)"/><path class="cls-4" d="M284.4,304.89c-2.79,0-5.58,0-8.36.13s-5.57.18-8.32.45c-1.38.14-2.75.32-4.09.58s-2.68.75-4,1.05c-2.73.66-5.47,1.18-8.17,1.82a28.8,28.8,0,0,0-7.76,2.58c-2.24,1.42-3.81,3.81-5.32,6.1-.75,1.16-1.43,2.37-2.22,3.55a3.65,3.65,0,0,1-.74.86c-.25.2-.52.44-.77.67l-1.56,1.4a33.5,33.5,0,0,1-3.33,2.57,7.56,7.56,0,0,1-3.87,1.5,7.77,7.77,0,0,0,3.72-1.72,31.25,31.25,0,0,0,3.15-2.71l1.5-1.45c.26-.24.5-.49.79-.73a3.55,3.55,0,0,0,.59-.74c.72-1.16,1.37-2.41,2.09-3.61a31.09,31.09,0,0,1,2.36-3.5,13,13,0,0,1,3.13-3,29.38,29.38,0,0,1,8-2.77c2.73-.62,5.47-1.11,8.18-1.73,1.36-.29,2.63-.71,4.06-1a35.33,35.33,0,0,1,4.2-.49A128.21,128.21,0,0,1,284.4,304.89Z" transform="translate(12.08 16.11)"/><path class="cls-4" d="M359.93,303.36a43.88,43.88,0,0,1,7.93-4.05,24.74,24.74,0,0,1,4.34-1.23,14.67,14.67,0,0,1,2.26-.19l2.21-.11c2.95-.14,5.92-.22,8.89-.1a30.17,30.17,0,0,1,4.44.5,19.4,19.4,0,0,1,4.26,1.36,50.24,50.24,0,0,1,7.77,4.39,67.71,67.71,0,0,1,7.11,5.42,15,15,0,0,1,2.93,3.48,2.5,2.5,0,0,0,1.35,1.27,8,8,0,0,0,2.08.19q4.44.1,8.87.34a.05.05,0,0,1,0,.1q-4.42.24-8.87.34a8.51,8.51,0,0,1-2.33-.13,2.59,2.59,0,0,1-1.14-.64,5.65,5.65,0,0,1-.76-.93,14.83,14.83,0,0,0-2.85-3.22,84.9,84.9,0,0,0-6.92-5.44A64.3,64.3,0,0,0,394,300a18.3,18.3,0,0,0-8.48-2,72.74,72.74,0,0,0-8.83.59c-6-.15-11.39,2.33-16.74,4.84a.05.05,0,0,1-.07,0A0,0,0,0,1,359.93,303.36Z" transform="translate(12.08 16.11)"/><path class="cls-4" d="M347.84,306.25a28.11,28.11,0,0,0-1.7,3.71,19,19,0,0,0-1.12,3.87,11.18,11.18,0,0,0-.06,3.91c.25,1.34.52,2.66.88,4a13.29,13.29,0,0,0,3.9,6.75,14.58,14.58,0,0,0,3.36,2.18,34.68,34.68,0,0,0,3.75,1.61,18.68,18.68,0,0,1-7.6-3.2,11.45,11.45,0,0,1-2.78-3.18,17.6,17.6,0,0,1-1.6-3.9c-.35-1.34-.62-2.7-.84-4.06a10.93,10.93,0,0,1,.24-4.23A20.76,20.76,0,0,1,347.84,306.25Z" transform="translate(12.08 16.11)"/><path class="cls-4" d="M296.54,308.34a19.41,19.41,0,0,1,6.83,6.91,15.83,15.83,0,0,1,1.81,4.63,20,20,0,0,1,.36,4.94,45.34,45.34,0,0,1-1.6,9.66q-.65,2.36-1.41,4.67c-.55,1.53-1.1,3.06-1.76,4.54.91-3.11,1.74-6.24,2.42-9.39a57.17,57.17,0,0,0,1.35-9.51,20.05,20.05,0,0,0-.28-4.72,17,17,0,0,0-1.57-4.45,19.32,19.32,0,0,0-2.67-3.95A22.4,22.4,0,0,0,296.54,308.34Z" transform="translate(12.08 16.11)"/></g></svg>